<mxfile host="app.diagrams.net" modified="2024-01-23T09:13:49.118Z" agent="Mozilla/5.0 (Windows NT 10.0; Win64; x64; rv:121.0) Gecko/20100101 Firefox/121.0" etag="oIXTzxk0sxE1WvU-h8wC" version="22.1.21" type="github">
  <diagram name="Page-1" id="SHznJoDzly4GYoYXKaaM">
    <mxGraphModel dx="2580" dy="1608" grid="1" gridSize="10" guides="1" tooltips="1" connect="1" arrows="1" fold="1" page="1" pageScale="1" pageWidth="850" pageHeight="1100" math="0" shadow="0">
      <root>
        <mxCell id="0" />
        <mxCell id="1" parent="0" />
        <mxCell id="xcJyHpn_TASTSululvE_-1" value="1" style="ellipse;whiteSpace=wrap;html=1;aspect=fixed;fontSize=20;" parent="1" vertex="1">
          <mxGeometry x="-1700" y="190" width="40" height="40" as="geometry" />
        </mxCell>
        <mxCell id="xcJyHpn_TASTSululvE_-2" value="user is registered" style="endArrow=none;html=1;rounded=0;fontSize=12;" parent="1" edge="1">
          <mxGeometry width="50" height="50" relative="1" as="geometry">
            <mxPoint x="-1660" y="200" as="sourcePoint" />
            <mxPoint x="-1510" y="150" as="targetPoint" />
          </mxGeometry>
        </mxCell>
        <mxCell id="xcJyHpn_TASTSululvE_-3" value="user is not registered" style="endArrow=none;html=1;rounded=0;fontSize=12;entryX=0;entryY=0.5;entryDx=0;entryDy=0;" parent="1" edge="1" target="5CcuswN3-5WaLOZWojB9-29">
          <mxGeometry x="-0.0655" y="-1" width="50" height="50" relative="1" as="geometry">
            <mxPoint x="-1660" y="220" as="sourcePoint" />
            <mxPoint x="-1520" y="310" as="targetPoint" />
            <mxPoint as="offset" />
          </mxGeometry>
        </mxCell>
        <mxCell id="xcJyHpn_TASTSululvE_-6" value="2" style="ellipse;whiteSpace=wrap;html=1;aspect=fixed;fontStyle=0;fontSize=20;" parent="1" vertex="1">
          <mxGeometry x="-1510" y="120" width="40" height="40" as="geometry" />
        </mxCell>
        <mxCell id="xcJyHpn_TASTSululvE_-7" value="is logged in " style="endArrow=none;html=1;rounded=0;exitX=1;exitY=0.5;exitDx=0;exitDy=0;fontSize=12;entryX=0;entryY=0.5;entryDx=0;entryDy=0;" parent="1" source="xcJyHpn_TASTSululvE_-6" edge="1" target="5CcuswN3-5WaLOZWojB9-1">
          <mxGeometry width="50" height="50" relative="1" as="geometry">
            <mxPoint x="-1440" y="290" as="sourcePoint" />
            <mxPoint x="-1350" y="110" as="targetPoint" />
          </mxGeometry>
        </mxCell>
        <mxCell id="5CcuswN3-5WaLOZWojB9-1" value="3" style="ellipse;whiteSpace=wrap;html=1;aspect=fixed;fontSize=20;" vertex="1" parent="1">
          <mxGeometry x="-1320" y="90" width="40" height="40" as="geometry" />
        </mxCell>
        <mxCell id="5CcuswN3-5WaLOZWojB9-2" value="is not logged in" style="endArrow=none;html=1;rounded=0;exitX=1;exitY=1;exitDx=0;exitDy=0;fontSize=12;entryX=0;entryY=0.25;entryDx=0;entryDy=0;" edge="1" parent="1" source="xcJyHpn_TASTSululvE_-6" target="5CcuswN3-5WaLOZWojB9-27">
          <mxGeometry width="50" height="50" relative="1" as="geometry">
            <mxPoint x="-1320" y="290" as="sourcePoint" />
            <mxPoint x="-1350" y="210" as="targetPoint" />
          </mxGeometry>
        </mxCell>
        <mxCell id="5CcuswN3-5WaLOZWojB9-3" value="is not browsing menu" style="endArrow=none;html=1;rounded=0;entryX=1;entryY=1;entryDx=0;entryDy=0;fontSize=12;exitX=0;exitY=0.25;exitDx=0;exitDy=0;" edge="1" parent="1" source="5CcuswN3-5WaLOZWojB9-25" target="5CcuswN3-5WaLOZWojB9-1">
          <mxGeometry width="50" height="50" relative="1" as="geometry">
            <mxPoint x="-1160" y="190" as="sourcePoint" />
            <mxPoint x="-1270" y="240" as="targetPoint" />
          </mxGeometry>
        </mxCell>
        <mxCell id="5CcuswN3-5WaLOZWojB9-4" value="is browsing menu" style="endArrow=none;html=1;rounded=0;exitX=1.05;exitY=0.3;exitDx=0;exitDy=0;exitPerimeter=0;fontSize=12;entryX=0;entryY=0.5;entryDx=0;entryDy=0;" edge="1" parent="1" source="5CcuswN3-5WaLOZWojB9-1" target="5CcuswN3-5WaLOZWojB9-5">
          <mxGeometry width="50" height="50" relative="1" as="geometry">
            <mxPoint x="-1320" y="290" as="sourcePoint" />
            <mxPoint x="-1150" y="70" as="targetPoint" />
          </mxGeometry>
        </mxCell>
        <mxCell id="5CcuswN3-5WaLOZWojB9-5" value="4" style="ellipse;whiteSpace=wrap;html=1;aspect=fixed;fontSize=20;" vertex="1" parent="1">
          <mxGeometry x="-1150" y="40" width="40" height="40" as="geometry" />
        </mxCell>
        <mxCell id="5CcuswN3-5WaLOZWojB9-6" value="is placing order" style="endArrow=none;html=1;rounded=0;entryX=1.025;entryY=0.325;entryDx=0;entryDy=0;entryPerimeter=0;exitX=0;exitY=0.5;exitDx=0;exitDy=0;fontSize=12;" edge="1" parent="1" source="5CcuswN3-5WaLOZWojB9-8" target="5CcuswN3-5WaLOZWojB9-5">
          <mxGeometry width="50" height="50" relative="1" as="geometry">
            <mxPoint x="-950" y="30" as="sourcePoint" />
            <mxPoint x="-1270" y="70" as="targetPoint" />
          </mxGeometry>
        </mxCell>
        <mxCell id="5CcuswN3-5WaLOZWojB9-7" value="is not placing order" style="endArrow=none;html=1;rounded=0;entryX=0.925;entryY=0.7;entryDx=0;entryDy=0;entryPerimeter=0;fontSize=12;exitX=0;exitY=0.5;exitDx=0;exitDy=0;" edge="1" parent="1" source="5CcuswN3-5WaLOZWojB9-23" target="5CcuswN3-5WaLOZWojB9-5">
          <mxGeometry width="50" height="50" relative="1" as="geometry">
            <mxPoint x="-1000" y="120" as="sourcePoint" />
            <mxPoint x="-1270" y="70" as="targetPoint" />
          </mxGeometry>
        </mxCell>
        <mxCell id="5CcuswN3-5WaLOZWojB9-8" value="5" style="ellipse;whiteSpace=wrap;html=1;aspect=fixed;fontSize=20;" vertex="1" parent="1">
          <mxGeometry x="-920" y="-10" width="40" height="40" as="geometry" />
        </mxCell>
        <mxCell id="5CcuswN3-5WaLOZWojB9-9" value="is modifying order" style="endArrow=none;html=1;rounded=0;entryX=1.025;entryY=0.325;entryDx=0;entryDy=0;entryPerimeter=0;fontSize=12;exitX=0;exitY=0.5;exitDx=0;exitDy=0;" edge="1" parent="1" source="5CcuswN3-5WaLOZWojB9-12" target="5CcuswN3-5WaLOZWojB9-8">
          <mxGeometry width="50" height="50" relative="1" as="geometry">
            <mxPoint x="-720" y="-40" as="sourcePoint" />
            <mxPoint x="-1000" y="70" as="targetPoint" />
          </mxGeometry>
        </mxCell>
        <mxCell id="5CcuswN3-5WaLOZWojB9-10" value="is not modifying order" style="endArrow=none;html=1;rounded=0;entryX=1;entryY=1;entryDx=0;entryDy=0;fontSize=12;exitX=0;exitY=0.5;exitDx=0;exitDy=0;" edge="1" parent="1" source="5CcuswN3-5WaLOZWojB9-11" target="5CcuswN3-5WaLOZWojB9-8">
          <mxGeometry width="50" height="50" relative="1" as="geometry">
            <mxPoint x="-780" y="90" as="sourcePoint" />
            <mxPoint x="-1000" y="70" as="targetPoint" />
          </mxGeometry>
        </mxCell>
        <mxCell id="5CcuswN3-5WaLOZWojB9-11" value="10" style="whiteSpace=wrap;html=1;aspect=fixed;fontSize=20;" vertex="1" parent="1">
          <mxGeometry x="-770" y="90" width="40" height="40" as="geometry" />
        </mxCell>
        <mxCell id="5CcuswN3-5WaLOZWojB9-12" value="6" style="whiteSpace=wrap;html=1;aspect=fixed;fontSize=20;" vertex="1" parent="1">
          <mxGeometry x="-730" y="-50" width="40" height="40" as="geometry" />
        </mxCell>
        <mxCell id="5CcuswN3-5WaLOZWojB9-13" value="modify and proceed to payment" style="endArrow=none;html=1;rounded=0;entryX=1;entryY=0.5;entryDx=0;entryDy=0;fontSize=12;exitX=0;exitY=0.5;exitDx=0;exitDy=0;" edge="1" parent="1" source="5CcuswN3-5WaLOZWojB9-15" target="5CcuswN3-5WaLOZWojB9-12">
          <mxGeometry width="50" height="50" relative="1" as="geometry">
            <mxPoint x="-390" y="-30" as="sourcePoint" />
            <mxPoint x="-1000" y="70" as="targetPoint" />
          </mxGeometry>
        </mxCell>
        <mxCell id="5CcuswN3-5WaLOZWojB9-14" value="proceed to payment" style="endArrow=none;html=1;rounded=0;exitX=1;exitY=0.5;exitDx=0;exitDy=0;fontSize=12;" edge="1" parent="1" source="5CcuswN3-5WaLOZWojB9-11">
          <mxGeometry width="50" height="50" relative="1" as="geometry">
            <mxPoint x="-650" y="120" as="sourcePoint" />
            <mxPoint x="-440" y="110" as="targetPoint" />
          </mxGeometry>
        </mxCell>
        <mxCell id="5CcuswN3-5WaLOZWojB9-15" value="7" style="ellipse;whiteSpace=wrap;html=1;aspect=fixed;fontSize=20;" vertex="1" parent="1">
          <mxGeometry x="-380" y="-50" width="40" height="40" as="geometry" />
        </mxCell>
        <mxCell id="5CcuswN3-5WaLOZWojB9-17" value="is not giving feedback" style="endArrow=none;html=1;rounded=0;entryX=1;entryY=1;entryDx=0;entryDy=0;exitX=0;exitY=0.25;exitDx=0;exitDy=0;fontSize=12;" edge="1" parent="1" source="5CcuswN3-5WaLOZWojB9-21" target="5CcuswN3-5WaLOZWojB9-15">
          <mxGeometry width="50" height="50" relative="1" as="geometry">
            <mxPoint x="-240" y="30" as="sourcePoint" />
            <mxPoint x="-600" y="70" as="targetPoint" />
          </mxGeometry>
        </mxCell>
        <mxCell id="5CcuswN3-5WaLOZWojB9-18" value="is giving feedback" style="endArrow=none;html=1;rounded=0;entryX=1;entryY=0;entryDx=0;entryDy=0;exitX=0;exitY=0.5;exitDx=0;exitDy=0;fontSize=12;" edge="1" parent="1" source="5CcuswN3-5WaLOZWojB9-19" target="5CcuswN3-5WaLOZWojB9-15">
          <mxGeometry width="50" height="50" relative="1" as="geometry">
            <mxPoint x="-220" y="-90" as="sourcePoint" />
            <mxPoint x="-600" y="70" as="targetPoint" />
          </mxGeometry>
        </mxCell>
        <mxCell id="5CcuswN3-5WaLOZWojB9-19" value="8" style="whiteSpace=wrap;html=1;aspect=fixed;fontSize=20;" vertex="1" parent="1">
          <mxGeometry x="-210" y="-120" width="40" height="40" as="geometry" />
        </mxCell>
        <mxCell id="5CcuswN3-5WaLOZWojB9-20" value="take feedback" style="endArrow=none;html=1;rounded=0;entryX=1;entryY=0.5;entryDx=0;entryDy=0;fontSize=12;" edge="1" parent="1" target="5CcuswN3-5WaLOZWojB9-19">
          <mxGeometry width="50" height="50" relative="1" as="geometry">
            <mxPoint x="50" y="-100" as="sourcePoint" />
            <mxPoint x="-360" y="70" as="targetPoint" />
          </mxGeometry>
        </mxCell>
        <mxCell id="5CcuswN3-5WaLOZWojB9-21" value="9" style="whiteSpace=wrap;html=1;aspect=fixed;fontSize=20;" vertex="1" parent="1">
          <mxGeometry x="-210" y="20" width="40" height="40" as="geometry" />
        </mxCell>
        <mxCell id="5CcuswN3-5WaLOZWojB9-22" value="prompt user to give feedback" style="endArrow=none;html=1;rounded=0;entryX=1;entryY=0.5;entryDx=0;entryDy=0;fontSize=12;" edge="1" parent="1" target="5CcuswN3-5WaLOZWojB9-21">
          <mxGeometry width="50" height="50" relative="1" as="geometry">
            <mxPoint x="50" y="40" as="sourcePoint" />
            <mxPoint x="-360" y="70" as="targetPoint" />
          </mxGeometry>
        </mxCell>
        <mxCell id="5CcuswN3-5WaLOZWojB9-23" value="11" style="whiteSpace=wrap;html=1;aspect=fixed;fontSize=20;" vertex="1" parent="1">
          <mxGeometry x="-1000" y="140" width="40" height="40" as="geometry" />
        </mxCell>
        <mxCell id="5CcuswN3-5WaLOZWojB9-24" value="prompt user to place order" style="endArrow=none;html=1;rounded=0;exitX=1;exitY=0.5;exitDx=0;exitDy=0;fontSize=12;" edge="1" parent="1" source="5CcuswN3-5WaLOZWojB9-23">
          <mxGeometry width="50" height="50" relative="1" as="geometry">
            <mxPoint x="-1040" y="120" as="sourcePoint" />
            <mxPoint x="-760" y="160" as="targetPoint" />
          </mxGeometry>
        </mxCell>
        <mxCell id="5CcuswN3-5WaLOZWojB9-25" value="12" style="whiteSpace=wrap;html=1;aspect=fixed;fontSize=20;" vertex="1" parent="1">
          <mxGeometry x="-1150" y="200" width="40" height="40" as="geometry" />
        </mxCell>
        <mxCell id="5CcuswN3-5WaLOZWojB9-26" value="prompt user to browse menu" style="endArrow=none;html=1;rounded=0;exitX=1;exitY=0.5;exitDx=0;exitDy=0;fontSize=12;" edge="1" parent="1" source="5CcuswN3-5WaLOZWojB9-25">
          <mxGeometry width="50" height="50" relative="1" as="geometry">
            <mxPoint x="-1040" y="120" as="sourcePoint" />
            <mxPoint x="-880" y="220" as="targetPoint" />
          </mxGeometry>
        </mxCell>
        <mxCell id="5CcuswN3-5WaLOZWojB9-27" value="13" style="whiteSpace=wrap;html=1;aspect=fixed;fontSize=20;" vertex="1" parent="1">
          <mxGeometry x="-1380" y="250" width="40" height="40" as="geometry" />
        </mxCell>
        <mxCell id="5CcuswN3-5WaLOZWojB9-28" value="prompt user to log in" style="endArrow=none;html=1;rounded=0;entryX=1;entryY=0.5;entryDx=0;entryDy=0;fontSize=12;" edge="1" parent="1" target="5CcuswN3-5WaLOZWojB9-27">
          <mxGeometry width="50" height="50" relative="1" as="geometry">
            <mxPoint x="-1140" y="270" as="sourcePoint" />
            <mxPoint x="-1290" y="290" as="targetPoint" />
          </mxGeometry>
        </mxCell>
        <mxCell id="5CcuswN3-5WaLOZWojB9-29" value="14" style="whiteSpace=wrap;html=1;aspect=fixed;" vertex="1" parent="1">
          <mxGeometry x="-1580" y="310" width="40" height="40" as="geometry" />
        </mxCell>
        <mxCell id="5CcuswN3-5WaLOZWojB9-30" value="prompt user to register" style="endArrow=none;html=1;rounded=0;exitX=1;exitY=0.75;exitDx=0;exitDy=0;fontSize=12;" edge="1" parent="1" source="5CcuswN3-5WaLOZWojB9-29">
          <mxGeometry width="50" height="50" relative="1" as="geometry">
            <mxPoint x="-1340" y="340" as="sourcePoint" />
            <mxPoint x="-1220" y="340" as="targetPoint" />
          </mxGeometry>
        </mxCell>
      </root>
    </mxGraphModel>
  </diagram>
</mxfile>
